<?xml version="1.0" standalone="no"?>
<!DOCTYPE svg PUBLIC "-//W3C//DTD SVG 20010904//EN"
 "http://www.w3.org/TR/2001/REC-SVG-20010904/DTD/svg10.dtd">
<svg version="1.0" xmlns="http://www.w3.org/2000/svg"
 width="249.000000pt" height="249.000000pt" viewBox="0 0 249.000000 249.000000"
 preserveAspectRatio="xMidYMid meet">
<metadata>
Created by potrace 1.14, written by Peter Selinger 2001-2017
</metadata>
<g transform="translate(0.000000,249.000000) scale(0.100000,-0.100000)"
fill="#000000" stroke="none">
<path d="M24 1785 c-9 -26 -8 -110 0 -124 4 -6 4 -11 -1 -11 -9 0 -8 -94 2
-109 3 -6 3 -11 -2 -11 -9 0 -8 -93 1 -109 3 -5 2 -11 -4 -13 -5 -2 -6 -9 -1
-17 7 -11 59 -14 282 -13 151 0 288 -4 305 -9 39 -12 81 -56 88 -92 7 -38 -12
-87 -43 -114 -30 -27 -21 -25 -136 -27 -50 -1 -95 -5 -101 -9 -6 -3 -14 -3
-18 0 -10 11 -46 11 -46 0 0 -6 -5 -6 -12 0 -11 9 -70 10 -88 3 -3 -1 -9 -1
-15 0 -5 2 -30 4 -55 5 -25 2 -49 3 -53 4 -5 0 -8 11 -7 24 5 58 2 62 -42 62
-56 0 -71 -10 -58 -36 6 -10 7 -19 3 -19 -9 0 -8 -94 2 -109 3 -6 0 -11 -7
-11 -9 -1 -9 -3 2 -9 8 -5 52 -9 97 -9 45 0 87 -3 94 -8 7 -4 10 -3 6 2 -5 8
66 11 83 4 3 -1 10 -1 15 0 25 6 142 5 163 -2 13 -4 21 -4 18 0 -2 4 24 7 59
6 49 -1 77 4 113 21 98 46 155 161 126 255 -4 14 -7 26 -6 28 4 4 -21 33 -66
77 -61 62 -68 63 -390 64 l-208 1 -1 110 -1 110 87 1 c198 3 214 -1 203 -43
-8 -32 11 -38 93 -29 8 1 13 138 6 171 -1 3 -109 5 -241 5 -230 0 -241 -1
-246 -20z"/>
<path d="M669 1779 c-1 -13 -2 -35 -2 -49 -2 -26 26 -56 42 -45 5 3 12 1 15
-4 4 -5 23 -15 42 -21 60 -20 156 -109 199 -182 102 -179 73 -390 -73 -538
-55 -55 -166 -119 -212 -123 -11 -1 -20 -4 -20 -7 0 -4 -119 -7 -265 -8 -252
0 -264 0 -270 19 -4 10 -3 23 0 29 7 11 -32 29 -55 24 -8 -1 -22 -3 -31 -3
-20 -1 -30 -32 -18 -54 5 -9 5 -18 1 -21 -5 -3 -6 -24 -3 -48 l6 -43 310 1
c298 0 369 5 408 25 9 6 22 7 27 4 6 -3 10 -1 10 4 0 6 6 11 13 11 20 0 130
73 164 108 60 63 79 89 110 147 45 86 56 136 58 250 1 83 -3 111 -23 165 -13
36 -26 73 -29 83 -3 9 -9 17 -14 17 -5 0 -9 5 -9 11 0 24 -130 169 -152 169
-4 0 -13 6 -20 13 -19 17 -111 60 -153 70 -11 3 -28 8 -37 12 -14 6 -18 2 -19
-16z"/>
<path d="M1307 1408 c-5 -3 -16 -4 -24 -1 -7 3 -13 -1 -13 -8 0 -22 13 -35 35
-34 21 0 22 -12 25 -426 0 -44 2 -47 25 -45 14 0 25 6 26 11 5 41 3 114 -3
133 -4 12 -4 22 1 22 10 0 8 51 -3 68 -4 7 -3 12 2 12 10 0 8 92 -2 109 -4 6
-3 11 2 11 6 0 8 17 6 38 -5 53 3 71 29 68 28 -3 35 29 9 39 -23 9 -101 12
-115 3z"/>
<path d="M1608 1413 c-16 -2 -28 -10 -28 -16 -1 -15 -1 -373 0 -447 l0 -55 75
0 c55 -1 75 3 75 12 0 7 0 16 0 21 0 4 -8 7 -18 7 -9 1 -23 4 -30 8 -7 5 -12
3 -12 -3 0 -7 -6 -8 -18 -1 -16 8 -18 22 -17 95 0 46 4 88 8 92 12 13 40 14
54 2 10 -8 15 -4 22 13 12 31 4 38 -44 41 l-40 3 0 87 c-1 95 1 98 64 93 27
-2 31 1 31 22 0 20 -4 23 -32 22 -18 -1 -40 1 -48 3 -8 3 -27 3 -42 1z"/>
<path d="M1960 1413 c-40 -8 -68 -51 -61 -95 0 -5 -2 -8 -6 -8 -12 0 -6 -302
6 -348 11 -40 29 -62 53 -66 7 -1 18 -5 25 -9 6 -4 14 -1 16 5 4 10 6 10 6 0
2 -26 71 25 80 58 2 8 5 46 7 83 l4 68 -28 -3 c-26 -3 -27 -5 -30 -69 -3 -79
-25 -110 -61 -87 -23 14 -23 10 -25 208 -2 153 4 196 31 215 33 25 52 -14 57
-115 1 -30 4 -34 26 -34 24 0 25 3 26 54 1 64 -10 96 -43 128 -24 22 -34 24
-83 15z"/>
<path d="M2280 1410 l-25 -6 0 -257 c0 -251 0 -256 20 -252 11 2 23 4 27 4 4
1 9 56 10 123 l3 122 35 2 c37 1 64 -12 54 -27 -8 -13 -8 -134 0 -147 3 -6 2
-13 -3 -17 -6 -3 -6 -16 0 -35 12 -34 46 -37 52 -5 4 17 2 447 -2 481 0 7 -12
14 -26 17 -14 2 -24 2 -22 0 3 -2 1 -20 -3 -39 -4 -19 -4 -36 1 -39 4 -3 4
-17 -1 -30 -5 -13 -6 -27 -1 -29 4 -3 5 -22 2 -43 -6 -36 -8 -38 -46 -39 l-40
-1 -5 112 -5 111 -25 -6z"/>
<path d="M1276 755 c1 -25 3 -48 6 -50 4 -5 698 -8 1106 -6 l102 1 0 50 0 50
-608 0 -607 0 1 -45z"/>
</g>
</svg>
